<svg id="Layer_1" data-name="Layer 1" xmlns="http://www.w3.org/2000/svg" viewBox="0 0 512 512"><title>gift-glyph</title><path d="M32,501.33A10.67,10.67,0,0,1,21.33,512H10.67a10.67,10.67,0,1,1,0-21.33H21.33A10.67,10.67,0,0,1,32,501.33Zm469.33-10.67h-32a10.67,10.67,0,0,0,0,21.33h32a10.67,10.67,0,1,0,0-21.33ZM444.88,104.46a10.66,10.66,0,0,0-15.08,0l-8.46,8.46-8.46-8.46a10.67,10.67,0,1,0-15.08,15.08l8.46,8.46-8.46,8.46a10.67,10.67,0,1,0,15.08,15.08l8.46-8.46,8.46,8.46a10.67,10.67,0,0,0,15.08-15.08L436.42,128l8.46-8.46A10.66,10.66,0,0,0,444.88,104.46ZM141.79,50.21a10.66,10.66,0,0,0,15.08,0l8.46-8.46,8.46,8.46a10.67,10.67,0,1,0,15.08-15.08l-8.46-8.46,8.46-8.46A10.67,10.67,0,1,0,173.79,3.13l-8.46,8.46-8.46-8.46a10.67,10.67,0,0,0-15.08,15.08l8.46,8.46-8.46,8.46A10.66,10.66,0,0,0,141.79,50.21Zm-35.13,88.46A10.67,10.67,0,1,0,96,128,10.67,10.67,0,0,0,106.67,138.67ZM288,85.33a10.67,10.67,0,1,0-10.67-10.67A10.67,10.67,0,0,0,288,85.33Zm154.67,416A10.67,10.67,0,0,1,432,512H58.67a10.67,10.67,0,1,1,0-21.33h48V309.33H213.33V288H96a21.36,21.36,0,0,1-21.33-21.33V229.33A21.36,21.36,0,0,1,96,208h82.78A48,48,0,0,1,256,151.23,48,48,0,0,1,333.22,208H416a21.36,21.36,0,0,1,21.33,21.33v37.33A21.36,21.36,0,0,1,416,288H298.67v21.33H405.33V490.67H432A10.67,10.67,0,0,1,442.67,501.33ZM218.67,208h26.67V181.33A26.67,26.67,0,1,0,218.67,208Zm58.67,21.33H234.67V490.67h42.67V229.33Zm16-21.33a26.67,26.67,0,1,0-26.67-26.67V208h26.67Z"/></svg>